<?xml version="1.0" encoding="UTF-8" standalone="no"?>
<!-- Created with Inkscape (http://www.inkscape.org/) -->

<svg
   width="1920"
   height="1080"
   viewBox="0 0 1920 1080"
   version="1.1"
   id="svg1"
   inkscape:version="1.4.2 (f4327f4, 2025-05-13)"
   sodipodi:docname="trabajo produccion multimedial.svg"
   inkscape:export-filename="trabajo produccion multimedial.svg"
   inkscape:export-xdpi="96"
   inkscape:export-ydpi="96"
   xmlns:inkscape="http://www.inkscape.org/namespaces/inkscape"
   xmlns:sodipodi="http://sodipodi.sourceforge.net/DTD/sodipodi-0.dtd"
   xmlns="http://www.w3.org/2000/svg"
   xmlns:svg="http://www.w3.org/2000/svg">
  <sodipodi:namedview
     id="namedview1"
     pagecolor="#ffffff"
     bordercolor="#000000"
     borderopacity="0.25"
     inkscape:showpageshadow="2"
     inkscape:pageopacity="0.0"
     inkscape:pagecheckerboard="0"
     inkscape:deskcolor="#d1d1d1"
     inkscape:document-units="px"
     inkscape:zoom="0.5283659"
     inkscape:cx="906.56872"
     inkscape:cy="470.31801"
     inkscape:window-width="1920"
     inkscape:window-height="1009"
     inkscape:window-x="-8"
     inkscape:window-y="-8"
     inkscape:window-maximized="1"
     inkscape:current-layer="layer1" />
  <defs
     id="defs1">
    <inkscape:path-effect
       effect="perspective-envelope"
       up_left_point="332.33909,385.61455"
       up_right_point="926.62424,195.55174"
       down_left_point="332.33909,536.90759"
       down_right_point="926.62424,613.73252"
       id="path-effect4"
       is_visible="true"
       lpeversion="1"
       deform_type="perspective"
       horizontal_mirror="false"
       vertical_mirror="false"
       overflow_perspective="false" />
    <inkscape:path-effect
       effect="perspective-envelope"
       up_left_point="927.82719,214.31568"
       up_right_point="1497.0785,385.7573"
       down_left_point="927.82719,632.49646"
       down_right_point="1497.0785,563.19837"
       id="path-effect3"
       is_visible="true"
       lpeversion="1"
       deform_type="perspective"
       horizontal_mirror="false"
       vertical_mirror="false"
       overflow_perspective="false" />
    <inkscape:path-effect
       effect="slice"
       start_point="925.50606,594.9875"
       end_point="925.50606,367.3058"
       center_point="925.50606,481.14665"
       id="path-effect1"
       is_visible="true"
       lpeversion="1.2"
       lpesatellites="#path1"
       allow_transforms="true" />
    <inkscape:perspective
       sodipodi:type="inkscape:persp3d"
       inkscape:vp_x="0 : 540 : 1"
       inkscape:vp_y="0 : 1000 : 0"
       inkscape:vp_z="1920 : 540 : 1"
       inkscape:persp3d-origin="960 : 360 : 1"
       id="perspective3" />
    <inkscape:path-effect
       effect="perspective-envelope"
       up_left_point="401.97852,365.51926"
       up_right_point="445.68878,360.63162"
       down_left_point="401.26955,373.71864"
       down_right_point="444.97982,376.49954"
       id="path-effect2"
       is_visible="true"
       lpeversion="1"
       deform_type="perspective"
       horizontal_mirror="false"
       vertical_mirror="false"
       overflow_perspective="false" />
    <rect
       x="401.48699"
       y="361.33829"
       width="218.14126"
       height="70.929368"
       id="rect1" />
    <rect
       x="401.48699"
       y="361.33829"
       width="218.14126"
       height="70.929368"
       id="rect2" />
    <rect
       x="401.48699"
       y="361.33829"
       width="218.14126"
       height="70.929368"
       id="rect3" />
  </defs>
  <g
     inkscape:label="Capa 1"
     inkscape:groupmode="layer"
     id="layer1">
    <g
       sodipodi:type="inkscape:box3d"
       id="g8"
       style="fill:#000000"
       inkscape:perspectiveID="#perspective3"
       inkscape:corner0="1.8496139 : 0.48702483 : 0 : 1"
       inkscape:corner7="0.030957851 : 0.055898068 : 1.398732 : 1">
      <path
         sodipodi:type="inkscape:box3dside"
         id="path13"
         style="fill:#e9e9ff;fill-rule:evenodd;stroke:none;stroke-linejoin:round"
         inkscape:box3dsidetype="11"
         d="M 858.11408,467.73074 1500.4242,413.63621 V 591.07727 L 858.11408,569.21182 Z"
         points="1500.4242,413.63621 1500.4242,591.07727 858.11408,569.21182 858.11408,467.73074 " />
      <path
         sodipodi:type="inkscape:box3dside"
         id="path8"
         style="fill:#353564;fill-rule:evenodd;stroke:none;stroke-linejoin:round"
         inkscape:box3dsidetype="6"
         d="M 336.88774,432.25739 V 583.55044 L 858.11408,569.21182 V 467.73074 Z"
         points="336.88774,583.55044 858.11408,569.21182 858.11408,467.73074 336.88774,432.25739 " />
      <path
         sodipodi:type="inkscape:box3dside"
         id="path12"
         style="fill:#afafde;fill-rule:evenodd;stroke:none;stroke-linejoin:round"
         inkscape:box3dsidetype="13"
         d="m 336.88774,583.55044 594.28515,76.82493 569.25131,-69.2981 -642.31012,-21.86545 z"
         points="931.17289,660.37537 1500.4242,591.07727 858.11408,569.21182 336.88774,583.55044 " />
      <path
         sodipodi:type="inkscape:box3dside"
         id="path9"
         style="fill:#4d4d9f;fill-rule:evenodd;stroke:none;stroke-linejoin:round"
         inkscape:box3dsidetype="5"
         d="M 336.88774,432.25739 931.17289,242.19459 1500.4242,413.63621 858.11408,467.73074 Z"
         points="931.17289,242.19459 1500.4242,413.63621 858.11408,467.73074 336.88774,432.25739 " />
      <path
         sodipodi:type="inkscape:box3dside"
         id="path11"
         style="fill:#d7d7ff;fill-rule:evenodd;stroke:none;stroke-linejoin:round"
         inkscape:box3dsidetype="14"
         d="m 931.17289,242.19459 v 418.18078 l 569.25131,-69.2981 V 413.63621 Z"
         points="931.17289,660.37537 1500.4242,591.07727 1500.4242,413.63621 931.17289,242.19459 " />
      <path
         sodipodi:type="inkscape:box3dside"
         id="path10"
         style="fill:#8686bf;fill-rule:evenodd;stroke:none;stroke-linejoin:round"
         inkscape:box3dsidetype="3"
         d="M 336.88774,432.25739 931.17289,242.19459 V 660.37537 L 336.88774,583.55044 Z"
         points="931.17289,242.19459 931.17289,660.37537 336.88774,583.55044 336.88774,432.25739 " />
    </g>
    <path
       d="m 1067.7713,256.46268 c -27.1283,-8.17024 -51.6903,-11.87996 -73.09586,-10.68889 -22.44751,1.09134 -39.45064,7.0793 -50.3639,18.11153 -10.92863,11.34196 -16.48435,32.47683 -16.48435,63.21466 0,21.31805 3.90955,39.41568 11.63405,54.11229 7.83292,14.49562 17.44524,26.07537 28.73566,34.75855 11.02821,8.48128 32.7398,22.0653 63.6764,39.94655 28.9148,16.56924 46.1117,27.668 52.8987,34.0163 6.5127,6.24294 9.7325,19.15263 9.7325,38.80088 0,8.93105 -1.7327,15.73205 -5.2141,20.43171 -3.3433,4.73112 -8.5763,7.29842 -15.7755,7.68031 -7.3248,0.38855 -12.5469,-1.19452 -15.5847,-4.77148 -2.8775,-3.60986 -4.3242,-11.98432 -4.3242,-25.10968 V 484.34333 L 932.44536,480.4437 v 26.15058 c 0,29.93625 4.33572,52.83925 12.90041,68.49628 8.41587,15.38572 25.6932,26.85808 50.88325,34.30997 24.07798,7.04244 51.45058,8.50564 81.41728,4.85762 25.5617,-3.11177 46.7227,-9.33028 64.0446,-18.48273 16.5808,-8.88737 27.3361,-18.56932 32.7345,-29.21089 5.453,-10.49688 8.1481,-26.30042 8.1481,-47.52439 0,-29.19831 -4.814,-50.64371 -14.6362,-64.61379 -10.0865,-14.34626 -35.7107,-34.74029 -80.145,-63.10965 -16.7042,-10.6307 -27.1768,-19.34052 -30.936,-25.84723 -3.9738,-6.59654 -5.9736,-15.7764 -5.9736,-27.49637 0,-9.1155 1.7272,-15.53848 5.1633,-19.24277 3.5877,-3.63386 8.7378,-4.65621 15.3918,-3.10925 6.0374,1.4036 10.297,4.00049 12.8326,7.78476 2.5203,3.76111 3.7726,11.44665 3.7726,23.07905 v 24.92619 l 87.5869,14.87352 -0,-11.88825 c 0,-23.90173 -2.5474,-41.42132 -7.6928,-52.67127 -5.0784,-11.4956 -15.8,-22.92647 -32.6532,-34.54988 -17.4578,-12.10159 -39.709,-22.33978 -67.5096,-30.71252 z m 139.8656,48.16546 v 287.76091 l 69.6259,-7.88236 V 475.51345 l 18.257,1.04528 v 105.88109 l 54.0937,-6.12396 V 346.17739 l -54.0937,-15.83045 v 90.15485 l -18.257,-2.69297 v -92.80477 z m 161.1312,47.15481 v 222.36442 l 42.5245,-4.81421 V 364.2277 Z m 57.7934,16.91318 0,198.90828 34.307,-3.88391 v -83.40768 c 4.3536,0.30383 6.9898,1.65017 7.9674,4.03591 1.0218,2.37827 1.5308,8.41091 1.5308,18.10683 v 60.18965 l 26.7104,-3.02388 V 514.7089 c 0,-13.74361 -0.2367,-22.13396 -0.709,-25.17634 -0.43,-3.11678 -1.573,-6.57123 -3.4423,-10.38283 -1.8861,-3.84543 -5.6195,-7.1457 -11.2977,-9.93003 6.2603,-0.31426 10.3564,-2.66943 12.4079,-7.04019 2.0317,-4.32861 3.0401,-13.103 3.0401,-26.35598 0,-14.51507 -1.4387,-25.41692 -4.347,-32.77921 -2.9045,-7.52395 -6.7498,-12.82122 -11.5851,-15.86376 -4.898,-3.09807 -14.613,-6.78701 -29.7925,-11.22926 z m 34.3084,41.69002 c 3.6587,0.81665 6.1306,2.26955 7.4544,4.36054 1.3645,2.0892 2.0438,6.00184 2.0438,11.74485 v 9.95552 c 0,7.98067 -0.7036,12.61788 -2.1172,13.91715 -1.3734,1.23907 -3.8217,1.62774 -7.381,1.1545 z"
       id="text2"
       style="font-stretch:condensed;font-size:12px;font-family:Impact;-inkscape-font-specification:'Impact, Condensed';white-space:pre;stroke-width:22.3332"
       aria-label="BIANSHIR"
       inkscape:path-effect="#path-effect1;#path-effect3"
       inkscape:original-d="m 443.61641,371.89455 h 53.28932 q 25.24917,0 38.19076,4.18382 13.06872,4.18382 21.06213,17.00523 7.99341,12.68644 7.99341,41.02859 0,19.16463 -5.70956,26.72264 -5.58265,7.55777 -22.20394,11.60662 18.52447,4.45378 25.12228,14.84607 6.59758,10.25709 6.59758,31.58112 v 20.24445 q 0,22.13366 -4.82129,32.79568 -4.69463,10.66202 -15.09879,14.57612 -10.40416,3.91386 -42.63159,3.91386 h -61.79031 z m 53.41622,37.38467 v 48.58635 q 3.4259,-0.1382 5.32908,-0.1382 7.86652,0 10.02349,-4.04884 2.15675,-4.18383 2.15675,-23.61841 0,-10.25709 -1.77563,-14.30593 -1.77564,-4.18383 -4.69441,-5.26364 -2.79144,-1.08028 -11.03864,-1.21387 z m 0,82.59682 v 61.13805 q 11.29241,-0.40539 14.33742,-3.77889 3.17212,-3.37419 3.17212,-16.6003 v -20.37943 q 0,-14.03621 -2.79144,-17.00524 -2.79144,-2.96926 -14.7181,-3.37419 z M 640.53376,371.89455 v 218.5042 h -53.41643 v -218.5042 z m 113.68425,0 30.57781,218.5042 h -54.68515 l -2.66433,-39.27411 h -19.15893 l -3.1719,39.27411 h -55.31962 l 27.15235,-218.5042 z m -28.29438,140.49589 q -4.06015,-37.11471 -8.12031,-91.63958 -8.1203,62.62256 -10.15038,91.63958 z M 913.19818,371.89455 v 218.5042 h -46.81864 l -27.7866,-99.33234 v 99.33234 h -44.66167 v -218.5042 h 44.66167 l 29.94357,98.3875 v -98.3875 z m 134.61942,66.1315 h -49.61009 v -16.19538 q 0,-11.3369 -1.9034,-14.4409 -1.9034,-3.10424 -6.344,-3.10424 -4.82124,0 -7.3589,4.18382 -2.41074,4.18382 -2.41074,12.68644 0,10.93197 2.79143,16.46556 2.66453,5.53336 15.09851,13.36109 35.65329,22.53883 44.91539,36.97974 9.2624,14.44113 9.2624,46.56215 0,23.34846 -5.2021,34.41541 -5.0752,11.06694 -19.7933,18.62473 -14.718,7.42303 -34.25739,7.42303 -21.44283,0 -36.66829,-8.63759 -15.09878,-8.6376 -19.79318,-21.99892 -4.69462,-13.36133 -4.69462,-37.92457 v -14.30593 h 49.61008 v 26.58767 q 0,12.2815 2.02899,15.79044 2.15675,3.50917 7.48582,3.50917 5.3288,0 7.8665,-4.45378 2.66449,-4.45376 2.66449,-13.22634 0,-19.29961 -4.94839,-25.2379 -5.0751,-5.93852 -24.99531,-19.83952 -19.92008,-14.03621 -26.39098,-20.37942 -6.4707,-6.34322 -10.78464,-17.54515 -4.18703,-11.2017 -4.18703,-28.61186 0,-25.10316 5.96333,-36.70978 6.09023,-11.60685 19.53939,-18.08505 13.44939,-6.61317 32.48124,-6.61317 20.80829,0 35.39949,7.15308 14.7181,7.15285 19.4124,18.08482 4.8216,10.79699 4.8216,36.84476 z m 144.0085,-66.1315 v 218.5042 h -53.4165 v -91.77456 h -15.9868 v 91.77456 h -53.4164 v -218.5042 h 53.4164 v 78.14329 h 15.9868 v -78.14329 z m 74.859,0 v 218.5042 h -53.4164 v -218.5042 z m 21.4428,0 h 37.8101 q 37.8101,0 51.1325,3.10424 13.4492,3.104 21.8233,15.92542 8.501,12.68643 8.501,40.62365 0,25.50808 -5.9633,34.28041 -5.9634,8.77258 -23.473,10.52728 15.8601,4.18382 21.316,11.2017 5.4558,7.01809 6.7245,12.95638 1.3967,5.80355 1.3967,32.25601 v 57.62911 h -49.6102 v -72.60992 q 0,-17.54491 -2.6643,-21.72897 -2.5376,-4.18382 -13.5762,-4.18382 v 98.52271 h -53.4163 z m 53.4162,37.38467 v 48.58635 q 9.0086,0 12.5611,-2.56433 3.6795,-2.69908 3.6795,-17.14022 v -12.01155 q 0,-10.39206 -3.5525,-13.63127 -3.4257,-3.23898 -12.6881,-3.23898 z"
       transform="translate(3.3457031,27.878906)" />
    <path
       id="path1"
       d="m 332.33909,385.61455 v 151.29304 l 30.88488,3.99258 c 12.10967,1.56545 20.5679,1.61741 24.83424,0.052 4.36113,-1.60028 7.58604,-5.22302 9.61848,-10.88397 2.10888,-5.71447 3.17228,-14.74091 3.17228,-27.0356 v -16.86767 c 0,-11.84497 -1.45295,-20.51732 -4.32773,-25.95685 -2.83425,-5.43641 -8.12142,-8.92053 -15.6667,-10.46467 6.7565,-2.94019 11.40365,-6.64779 13.78199,-11.08287 2.46206,-4.49679 3.70414,-12.05581 3.70414,-22.63542 0,-15.64595 -1.73777,-26.51971 -5.1678,-32.54529 -3.37187,-5.99635 -7.72812,-9.26036 -13.00179,-9.8548 -5.08368,-0.59418 -12.34326,0.63957 -21.52753,3.57686 z m 81.6232,-26.10453 0,187.94923 41.48614,5.36303 0,-206.58025 z m 74.82384,-23.92998 -25.29317,218.28218 54.59299,7.05739 3.51882,-42.01546 22.30622,1.08306 3.25215,44.6913 76.45661,9.88376 -45.17445,-267.6568 z m 149.72333,-47.88414 0,288.7912 84.27363,10.8943 V 438.89168 l 64.56282,156.83593 139.27833,18.00491 V 195.55174 L 792.84386,238.33705 V 399.5809 L 722.78309,260.74371 Z M 358.71112,405.09056 c 2.95076,-0.64992 4.95267,-0.83054 5.97339,-0.53099 1.07334,0.28976 1.94046,1.42103 2.59956,3.39747 0.66146,1.91456 0.99293,5.49487 0.99293,10.73466 0,9.92805 -0.40243,16.02315 -1.20524,18.27994 -0.79944,2.17851 -2.64371,3.47158 -5.50184,3.88146 -0.68484,0.0982 -1.63884,0.26986 -2.8588,0.51351 v -36.27458 z m 173.74025,-29.55392 c 3.16756,39.66086 6.37363,73.31231 9.61705,100.84457 l -21.17164,0.65751 c 1.51181,-20.99827 5.32965,-54.59299 11.55459,-101.50208 z m -173.74025,91.22334 c 4.28275,-0.10964 6.97534,0.54968 8.00732,1.98757 1.03775,1.44581 1.55966,5.75735 1.55966,12.92769 v 15.61574 c 0,6.75651 -0.59296,10.97233 -1.77133,12.64065 -1.12416,1.65975 -3.74319,2.4819 -7.79565,2.47343 z"
       style="font-stretch:condensed;font-size:12px;font-family:Impact;-inkscape-font-specification:'Impact, Condensed';white-space:pre;display:inline;stroke-width:22.3332"
       transform="translate(4.5486515,46.642846)"
       inkscape:path-effect="#path-effect4"
       inkscape:original-d="m 443.61719,371.89453 v 218.50391 h 61.78906 c 21.48495,0 35.69671,-1.30483 42.63281,-3.91407 6.93611,-2.6094 11.96791,-7.46815 15.09766,-14.57617 3.21419,-7.10801 4.82226,-18.03915 4.82226,-32.79492 v -20.24414 c 0,-14.21602 -2.19927,-24.74397 -6.59765,-31.58203 -4.39854,-6.92819 -12.7734,-11.87652 -25.12305,-14.8457 11.08086,-2.69924 18.48331,-6.56891 22.20508,-11.60743 3.80637,-5.03867 5.70898,-13.94623 5.70898,-26.72265 0,-18.89477 -2.6652,-32.56972 -7.99414,-41.02735 -5.32894,-8.5476 -12.35002,-14.21664 -21.0625,-17.00586 -8.62772,-2.78921 -21.35667,-4.18359 -38.18945,-4.18359 z m 143.5,0 V 590.39844 H 640.5332 V 371.89453 Z m 89.83008,0 -27.15235,218.50391 h 55.32031 l 3.17188,-39.27344 h 19.16016 l 2.66406,39.27344 h 54.68359 L 754.21875,371.89453 Z m 116.98437,0 v 218.50391 h 44.66211 v -99.33203 l 27.78516,99.33203 h 46.81836 V 371.89453 h -44.66016 v 98.38672 L 838.59375,371.89453 Z M 497.0332,409.27734 c 5.49814,0.0891 9.17811,0.49271 11.03907,1.21289 1.94584,0.71988 3.5096,2.47446 4.69335,5.26368 1.18376,2.69922 1.7754,7.46858 1.7754,14.30664 0,12.95638 -0.71842,20.82796 -2.15625,23.61718 -1.43798,2.69923 -4.7791,4.04883 -10.02344,4.04883 -1.26879,0 -3.04419,0.0465 -5.32813,0.13867 V 409.2793 Z M 717.80273,420.75 c 2.70678,36.34991 5.41433,66.89748 8.1211,91.64062 h -18.27149 c 1.35339,-19.34468 4.73686,-49.89225 10.15039,-91.64062 z M 497.0332,491.87695 c 7.95111,0.26996 12.85584,1.39354 14.7168,3.37305 1.86096,1.97935 2.79297,7.64839 2.79297,17.00586 v 20.37891 c 0,8.8174 -1.05908,14.35014 -3.17383,16.5996 -2.03001,2.24901 -6.80766,3.50904 -14.33594,3.7793 z" />
  </g>
</svg>
